<svg id="Capa_1" data-name="Capa 1" xmlns="http://www.w3.org/2000/svg" viewBox="0 0 372.79 379.67"><defs><style>.cls-1{fill:#fff;}</style></defs><path class="cls-1" d="M233.93,247.27v49.28H344a26.34,26.34,0,0,1,26.29,26.28,26.26,26.26,0,0,1,26.19-26.28H536.4v79.91H396.46a26.18,26.18,0,0,0-26.19,26.19A26.26,26.26,0,0,0,344,376.46h-110v49.37H344A26.26,26.26,0,0,1,370.27,452a26.18,26.18,0,0,1,26.19-26.19H536.4v88.35H412.71a21.54,21.54,0,0,0-21.58,21.57v4.09H349.4v-4.09a21.54,21.54,0,0,0-21.58-21.57H163.6v-354H310.07a60.26,60.26,0,0,1,60.2,60.2,60.18,60.18,0,0,1,60.11-60.2h106v87.11H396.46a26.18,26.18,0,0,0-26.19,26.19A26.26,26.26,0,0,0,344,247.27Z" transform="translate(-163.6 -160.16)"/></svg>